<svg version="1" xmlns="http://www.w3.org/2000/svg" width="933.333" height="933.333" viewBox="0 0 700.000000 700.000000"><path d="M611 2c-37.2 4.9-71.6 15.1-115.5 34.3C461.9 51 418.9 76.5 384 102.5c-12.9 9.6-34 26.6-39.5 31.7-1.1 1-3.1 2.8-4.5 3.9-14.6 11.8-62.2 59.9-85.6 86.3-4.3 4.9-10.1 11.3-12.9 14.3l-5 5.3-6.5-1c-3.6-.5-8.7-1.2-11.5-1.5-5.3-.7-32.3-.7-36.5-.1-1.4.2-5 .7-8 1.1-11.7 1.4-32.5 6.6-40.5 10-1.6.7-5.5 2.3-8.5 3.5-6.6 2.6-20.4 10-28 14.9-13.4 8.8-24.4 18.4-51.6 45.3-36.5 36.2-44 45.5-45 55.7C-.7 384 10.8 390.7 42 396c6.3 1 13.8 2.2 16.5 2.5 2.8.3 6.1.8 7.5 1.1 5.2.9 6.7 1.2 12.5 1.9 8.5 1.1 8.8 1.1 21 3 6.1.9 11.9 1.8 13 2 1.1.3 3.1.7 4.5.9 1.4.2 4.1.7 6.1 1.1l3.7.7-.5 10.2c-.9 16.6 3.1 31.4 12.5 46.8 3.4 5.6 3.9 6.8 2.4 6.8-2.8 0-16.2 6.3-22.7 10.5-26.1 17.2-54.9 69.5-62 113-1.2 7.3-1.3 21.5-.1 27.8 4.3 22.1 18.8 32 45.8 31.2 27.6-.8 64.6-14.3 95.8-35 21.5-14.3 35.3-31.8 40.1-50.8.6-2.6 1.3-4.7 1.6-4.7.2 0 2 .8 4.1 1.9 11.4 5.8 31.4 9.1 42.7 7 2.2-.4 4.2-.6 4.4-.4.4.4 2 8.4 2.6 12.5.2 1.4.8 4.7 1.3 7.5.6 2.7 1.4 7.7 1.7 11 .4 3.3.9 6.2 1 6.5.2.3.6 3.4 1 7 .3 3.6.8 7.2 1.1 8.1.2.9.7 3.6.9 6 .3 2.4.7 5.5.9 6.9.3 1.4.8 4.5 1.1 7 .3 2.5 1 6.7 1.5 9.5.5 2.7 1.2 6.6 1.5 8.5 1.3 8.3 4.9 19.9 7.8 25.5 7.1 13.3 16.7 13.7 33.2 1.2 7.9-5.9 57.5-55.4 68.7-68.4 11.4-13.3 24.1-34.4 30.8-51.3 2.8-6.9 7.9-23 7.3-23-.2 0 0-.8.6-1.8.5-.9 1.1-3.5 1.4-5.7.3-2.2 1.1-6.2 1.7-8.9 3-13.4 3.1-47.2.1-62.9-.8-4.3-.7-4.5 3.6-8.3 2.5-2.1 5.5-4.8 6.7-5.9 4.6-4 19.1-17.2 27-24.5 22.8-21 62.3-61.8 76.1-78.5 36-43.6 59.3-78.4 81-121 22-43.1 36.7-84.9 43.9-124.5 3.5-19.7 3.7-21.8 4.1-41.5.4-21.5-1.4-34.4-6.4-44.9-4.6-9.5-11.2-13.9-26.2-17.2C655.9 0 628.1-.2 611 2z"/></svg>